<mxfile host="app.diagrams.net" modified="2024-06-09T13:42:25.165Z" agent="Mozilla/5.0 (Windows NT 10.0; Win64; x64) AppleWebKit/537.36 (KHTML, like Gecko) Chrome/125.0.0.0 Safari/537.36" etag="Ygjv4Bj-gJ2vdPK5ubIt" version="24.5.2" type="github">
  <diagram id="C5RBs43oDa-KdzZeNtuy" name="Page-1">
    <mxGraphModel dx="1221" dy="618" grid="0" gridSize="10" guides="1" tooltips="1" connect="1" arrows="1" fold="1" page="1" pageScale="1" pageWidth="827" pageHeight="1169" math="0" shadow="0">
      <root>
        <mxCell id="WIyWlLk6GJQsqaUBKTNV-0" />
        <mxCell id="WIyWlLk6GJQsqaUBKTNV-1" parent="WIyWlLk6GJQsqaUBKTNV-0" />
        <mxCell id="9s3J5k1NbUmUccbUoj_h-1" style="edgeStyle=orthogonalEdgeStyle;rounded=0;orthogonalLoop=1;jettySize=auto;html=1;endArrow=block;endFill=0;" edge="1" parent="WIyWlLk6GJQsqaUBKTNV-1" source="GQL9yN1Y066BIaTeurnw-0" target="9s3J5k1NbUmUccbUoj_h-0">
          <mxGeometry relative="1" as="geometry" />
        </mxCell>
        <mxCell id="GQL9yN1Y066BIaTeurnw-0" value="ABird" style="swimlane;fontStyle=1;align=center;verticalAlign=top;childLayout=stackLayout;horizontal=1;startSize=26;horizontalStack=0;resizeParent=1;resizeParentMax=0;resizeLast=0;collapsible=1;marginBottom=0;whiteSpace=wrap;html=1;" parent="WIyWlLk6GJQsqaUBKTNV-1" vertex="1">
          <mxGeometry x="376" y="149" width="310" height="225" as="geometry" />
        </mxCell>
        <mxCell id="GQL9yN1Y066BIaTeurnw-1" value="+ PlayerCamera:&amp;nbsp;UCameraComponent*&lt;div&gt;+ BirdMappingContext: UInputMappingContext*&lt;/div&gt;&lt;div&gt;+ ItemCollision:&amp;nbsp;USphereComponent*&lt;/div&gt;" style="text;strokeColor=none;fillColor=none;align=left;verticalAlign=top;spacingLeft=4;spacingRight=4;overflow=hidden;rotatable=0;points=[[0,0.5],[1,0.5]];portConstraint=eastwest;whiteSpace=wrap;html=1;" parent="GQL9yN1Y066BIaTeurnw-0" vertex="1">
          <mxGeometry y="26" width="310" height="59" as="geometry" />
        </mxCell>
        <mxCell id="GQL9yN1Y066BIaTeurnw-2" value="" style="line;strokeWidth=1;fillColor=none;align=left;verticalAlign=middle;spacingTop=-1;spacingLeft=3;spacingRight=3;rotatable=0;labelPosition=right;points=[];portConstraint=eastwest;strokeColor=inherit;" parent="GQL9yN1Y066BIaTeurnw-0" vertex="1">
          <mxGeometry y="85" width="310" height="8" as="geometry" />
        </mxCell>
        <mxCell id="GQL9yN1Y066BIaTeurnw-3" value="&lt;div&gt;+ ABird()&lt;/div&gt;+ Tick(float): void&lt;div&gt;~ BeginPlay(): void&lt;/div&gt;&lt;div&gt;- Pitch(FInputActionValue&amp;amp;): void&lt;/div&gt;&lt;div&gt;- Roll(FInputActionValue&amp;amp;): void&lt;/div&gt;&lt;div&gt;- AddLift(): float&lt;/div&gt;&lt;div&gt;# SetupPlayerInputComponent(UInputComponent*): void&lt;br&gt;&lt;/div&gt;" style="text;strokeColor=none;fillColor=none;align=left;verticalAlign=top;spacingLeft=4;spacingRight=4;overflow=hidden;rotatable=0;points=[[0,0.5],[1,0.5]];portConstraint=eastwest;whiteSpace=wrap;html=1;" parent="GQL9yN1Y066BIaTeurnw-0" vertex="1">
          <mxGeometry y="93" width="310" height="132" as="geometry" />
        </mxCell>
        <mxCell id="9s3J5k1NbUmUccbUoj_h-0" value="&lt;b&gt;ACharacter&lt;/b&gt;" style="html=1;whiteSpace=wrap;" vertex="1" parent="WIyWlLk6GJQsqaUBKTNV-1">
          <mxGeometry x="384" y="36" width="110" height="50" as="geometry" />
        </mxCell>
      </root>
    </mxGraphModel>
  </diagram>
</mxfile>
